<mxfile host="app.diagrams.net" modified="2023-11-12T23:26:41.063Z" agent="Mozilla/5.0 (Macintosh; Intel Mac OS X 10_15_7) AppleWebKit/537.36 (KHTML, like Gecko) Chrome/119.0.0.0 Safari/537.36" etag="T_T6pWgfPuRVtpPF4TyW" version="22.1.0" type="device">
  <diagram name="Trang-1" id="7R-CnsCKleJGpYzZ4WkR">
    <mxGraphModel dx="1583" dy="765" grid="1" gridSize="10" guides="1" tooltips="1" connect="1" arrows="1" fold="1" page="1" pageScale="1" pageWidth="827" pageHeight="1169" math="0" shadow="0">
      <root>
        <mxCell id="0" />
        <mxCell id="1" parent="0" />
        <mxCell id="a8zfidE-jgkMa5DpJNaN-1" style="edgeStyle=orthogonalEdgeStyle;rounded=0;orthogonalLoop=1;jettySize=auto;html=1;" parent="1" source="a8zfidE-jgkMa5DpJNaN-2" target="a8zfidE-jgkMa5DpJNaN-9" edge="1">
          <mxGeometry relative="1" as="geometry" />
        </mxCell>
        <mxCell id="a8zfidE-jgkMa5DpJNaN-2" value="Start" style="ellipse;whiteSpace=wrap;html=1;" parent="1" vertex="1">
          <mxGeometry x="330" y="30" width="120" height="80" as="geometry" />
        </mxCell>
        <mxCell id="a8zfidE-jgkMa5DpJNaN-3" style="edgeStyle=orthogonalEdgeStyle;rounded=0;orthogonalLoop=1;jettySize=auto;html=1;" parent="1" source="a8zfidE-jgkMa5DpJNaN-7" edge="1">
          <mxGeometry relative="1" as="geometry">
            <mxPoint x="390" y="430" as="targetPoint" />
          </mxGeometry>
        </mxCell>
        <mxCell id="a8zfidE-jgkMa5DpJNaN-4" value="False" style="edgeLabel;html=1;align=center;verticalAlign=middle;resizable=0;points=[];" parent="a8zfidE-jgkMa5DpJNaN-3" vertex="1" connectable="0">
          <mxGeometry x="-0.0194" y="-2" relative="1" as="geometry">
            <mxPoint x="-2" y="-2" as="offset" />
          </mxGeometry>
        </mxCell>
        <mxCell id="a8zfidE-jgkMa5DpJNaN-5" style="edgeStyle=orthogonalEdgeStyle;rounded=0;orthogonalLoop=1;jettySize=auto;html=1;" parent="1" source="a8zfidE-jgkMa5DpJNaN-7" edge="1">
          <mxGeometry relative="1" as="geometry">
            <mxPoint x="250" y="330" as="targetPoint" />
          </mxGeometry>
        </mxCell>
        <mxCell id="a8zfidE-jgkMa5DpJNaN-6" value="True" style="edgeLabel;html=1;align=center;verticalAlign=middle;resizable=0;points=[];" parent="a8zfidE-jgkMa5DpJNaN-5" vertex="1" connectable="0">
          <mxGeometry x="-0.1259" y="-1" relative="1" as="geometry">
            <mxPoint as="offset" />
          </mxGeometry>
        </mxCell>
        <mxCell id="a8zfidE-jgkMa5DpJNaN-7" value="minute&amp;lt;=50" style="rhombus;whiteSpace=wrap;html=1;" parent="1" vertex="1">
          <mxGeometry x="325" y="290" width="130" height="80" as="geometry" />
        </mxCell>
        <mxCell id="a8zfidE-jgkMa5DpJNaN-8" style="edgeStyle=orthogonalEdgeStyle;rounded=0;orthogonalLoop=1;jettySize=auto;html=1;" parent="1" source="a8zfidE-jgkMa5DpJNaN-9" edge="1">
          <mxGeometry relative="1" as="geometry">
            <mxPoint x="390" y="290" as="targetPoint" />
          </mxGeometry>
        </mxCell>
        <mxCell id="a8zfidE-jgkMa5DpJNaN-9" value="&amp;nbsp;minute" style="shape=parallelogram;perimeter=parallelogramPerimeter;whiteSpace=wrap;html=1;fixedSize=1;" parent="1" vertex="1">
          <mxGeometry x="330" y="170" width="120" height="60" as="geometry" />
        </mxCell>
        <mxCell id="a8zfidE-jgkMa5DpJNaN-10" style="edgeStyle=orthogonalEdgeStyle;rounded=0;orthogonalLoop=1;jettySize=auto;html=1;" parent="1" source="a8zfidE-jgkMa5DpJNaN-14" edge="1">
          <mxGeometry relative="1" as="geometry">
            <mxPoint x="390" y="580" as="targetPoint" />
          </mxGeometry>
        </mxCell>
        <mxCell id="a8zfidE-jgkMa5DpJNaN-11" value="False" style="edgeLabel;html=1;align=center;verticalAlign=middle;resizable=0;points=[];" parent="a8zfidE-jgkMa5DpJNaN-10" vertex="1" connectable="0">
          <mxGeometry x="-0.0733" y="2" relative="1" as="geometry">
            <mxPoint as="offset" />
          </mxGeometry>
        </mxCell>
        <mxCell id="a8zfidE-jgkMa5DpJNaN-12" style="edgeStyle=orthogonalEdgeStyle;rounded=0;orthogonalLoop=1;jettySize=auto;html=1;" parent="1" source="a8zfidE-jgkMa5DpJNaN-14" edge="1">
          <mxGeometry relative="1" as="geometry">
            <mxPoint x="240" y="470" as="targetPoint" />
          </mxGeometry>
        </mxCell>
        <mxCell id="a8zfidE-jgkMa5DpJNaN-13" value="True" style="edgeLabel;html=1;align=center;verticalAlign=middle;resizable=0;points=[];" parent="a8zfidE-jgkMa5DpJNaN-12" vertex="1" connectable="0">
          <mxGeometry x="-0.0187" y="-3" relative="1" as="geometry">
            <mxPoint x="-2" y="1" as="offset" />
          </mxGeometry>
        </mxCell>
        <mxCell id="a8zfidE-jgkMa5DpJNaN-14" value="minute&amp;lt;=200" style="rhombus;whiteSpace=wrap;html=1;" parent="1" vertex="1">
          <mxGeometry x="320" y="430" width="140" height="80" as="geometry" />
        </mxCell>
        <mxCell id="a8zfidE-jgkMa5DpJNaN-15" style="edgeStyle=orthogonalEdgeStyle;rounded=0;orthogonalLoop=1;jettySize=auto;html=1;" parent="1" source="a8zfidE-jgkMa5DpJNaN-18" target="a8zfidE-jgkMa5DpJNaN-24" edge="1">
          <mxGeometry relative="1" as="geometry" />
        </mxCell>
        <mxCell id="a8zfidE-jgkMa5DpJNaN-16" value="True" style="edgeLabel;html=1;align=center;verticalAlign=middle;resizable=0;points=[];" parent="a8zfidE-jgkMa5DpJNaN-15" vertex="1" connectable="0">
          <mxGeometry y="-1" relative="1" as="geometry">
            <mxPoint as="offset" />
          </mxGeometry>
        </mxCell>
        <mxCell id="a8zfidE-jgkMa5DpJNaN-17" style="edgeStyle=orthogonalEdgeStyle;rounded=0;orthogonalLoop=1;jettySize=auto;html=1;" parent="1" source="a8zfidE-jgkMa5DpJNaN-18" target="a8zfidE-jgkMa5DpJNaN-26" edge="1">
          <mxGeometry relative="1" as="geometry" />
        </mxCell>
        <mxCell id="a8zfidE-jgkMa5DpJNaN-18" value="minute&amp;lt;=400" style="rhombus;whiteSpace=wrap;html=1;" parent="1" vertex="1">
          <mxGeometry x="320" y="580" width="140" height="80" as="geometry" />
        </mxCell>
        <mxCell id="a8zfidE-jgkMa5DpJNaN-30" style="edgeStyle=orthogonalEdgeStyle;rounded=0;orthogonalLoop=1;jettySize=auto;html=1;entryX=0;entryY=0.5;entryDx=0;entryDy=0;" parent="1" source="a8zfidE-jgkMa5DpJNaN-20" target="a8zfidE-jgkMa5DpJNaN-27" edge="1">
          <mxGeometry relative="1" as="geometry">
            <mxPoint x="-150" y="900" as="targetPoint" />
            <Array as="points">
              <mxPoint x="-150" y="330" />
              <mxPoint x="-150" y="880" />
            </Array>
          </mxGeometry>
        </mxCell>
        <mxCell id="a8zfidE-jgkMa5DpJNaN-20" value="money = minute*600+25000" style="shape=parallelogram;perimeter=parallelogramPerimeter;whiteSpace=wrap;html=1;fixedSize=1;" parent="1" vertex="1">
          <mxGeometry x="70" y="300" width="190" height="60" as="geometry" />
        </mxCell>
        <mxCell id="a8zfidE-jgkMa5DpJNaN-31" style="edgeStyle=orthogonalEdgeStyle;rounded=0;orthogonalLoop=1;jettySize=auto;html=1;" parent="1" source="a8zfidE-jgkMa5DpJNaN-22" edge="1">
          <mxGeometry relative="1" as="geometry">
            <mxPoint x="-150" y="470" as="targetPoint" />
          </mxGeometry>
        </mxCell>
        <mxCell id="a8zfidE-jgkMa5DpJNaN-22" value="money =(50*600 + (minute-50)*400) + 25000" style="shape=parallelogram;perimeter=parallelogramPerimeter;whiteSpace=wrap;html=1;fixedSize=1;" parent="1" vertex="1">
          <mxGeometry x="-30" y="440" width="280" height="60" as="geometry" />
        </mxCell>
        <mxCell id="a8zfidE-jgkMa5DpJNaN-32" style="edgeStyle=orthogonalEdgeStyle;rounded=0;orthogonalLoop=1;jettySize=auto;html=1;" parent="1" source="a8zfidE-jgkMa5DpJNaN-24" edge="1">
          <mxGeometry relative="1" as="geometry">
            <mxPoint x="-150" y="620" as="targetPoint" />
          </mxGeometry>
        </mxCell>
        <mxCell id="a8zfidE-jgkMa5DpJNaN-24" value="money = (50*600 + 150*400 + (minute - 200)*200) + 25000" style="shape=parallelogram;perimeter=parallelogramPerimeter;whiteSpace=wrap;html=1;fixedSize=1;" parent="1" vertex="1">
          <mxGeometry x="-110" y="590" width="350" height="60" as="geometry" />
        </mxCell>
        <mxCell id="a8zfidE-jgkMa5DpJNaN-25" style="edgeStyle=orthogonalEdgeStyle;rounded=0;orthogonalLoop=1;jettySize=auto;html=1;" parent="1" source="a8zfidE-jgkMa5DpJNaN-26" target="a8zfidE-jgkMa5DpJNaN-27" edge="1">
          <mxGeometry relative="1" as="geometry">
            <mxPoint x="390" y="860" as="targetPoint" />
          </mxGeometry>
        </mxCell>
        <mxCell id="a8zfidE-jgkMa5DpJNaN-26" value="money = (50*600 + 150*400 + 200*200 +(minute - 400)*100) = 25000" style="shape=parallelogram;perimeter=parallelogramPerimeter;whiteSpace=wrap;html=1;fixedSize=1;" parent="1" vertex="1">
          <mxGeometry x="185" y="730" width="410" height="60" as="geometry" />
        </mxCell>
        <mxCell id="a8zfidE-jgkMa5DpJNaN-27" value="End" style="ellipse;whiteSpace=wrap;html=1;" parent="1" vertex="1">
          <mxGeometry x="330" y="840" width="120" height="80" as="geometry" />
        </mxCell>
      </root>
    </mxGraphModel>
  </diagram>
</mxfile>
